<svg width="32" height="32" viewBox="0 0 32 32" fill="none" xmlns="http://www.w3.org/2000/svg">
<rect width="32" height="32" fill="#111111"/>
<path d="M16.1015 21.8095C16.0036 21.7618 15.9057 21.7141 15.8323 21.6664C13.679 19.6157 12.3331 17.1835 12.3086 14.179C12.3086 12.5336 12.8715 11.0552 13.7279 9.64834C14.4865 8.43223 15.2451 7.23996 16.0281 6C16.1504 6.23845 16.2728 6.45306 16.3951 6.66767C17.0314 7.74071 17.7165 8.81375 18.3283 9.8868C19.2582 11.5083 19.7965 13.249 19.6741 15.1566C19.5029 17.5412 18.4996 19.5442 16.8356 21.2372C16.6154 21.4518 16.3462 21.6426 16.1015 21.8333C17.8144 19.9734 18.9156 17.8512 19.2337 15.3712C18.6709 17.6604 17.4474 19.6396 16.1504 21.571C16.6399 18.805 16.126 16.0628 16.0036 13.3205C15.9302 16.0389 15.3674 18.7573 15.9547 21.4757C14.7312 19.5442 13.5077 17.6127 12.8959 15.3951C13.3609 17.8273 14.3886 19.9734 16.1015 21.8095Z" fill="#FBB646"/>
<path d="M14.8765 21.2C14.0406 20.6917 13.2286 20.135 12.3688 19.6268C11.1986 18.949 9.88503 18.6102 8.59535 18.2229C7.2818 17.8357 6.08766 17.2306 5.25176 16.093C4.20091 14.665 3.86655 13.0191 3.98596 11.2764C4.00985 10.7924 4.10538 10.3325 4.17703 9.8C4.24868 9.89682 4.29644 9.92102 4.32032 9.96943C4.94128 10.9376 5.80106 11.5185 6.87579 11.8573C7.44898 12.0268 8.04605 12.1962 8.59535 12.414C10.0522 13.0191 11.0792 14.1083 11.6524 15.5847C11.9628 16.3592 12.2255 17.158 12.536 17.9083C13.0137 19.0459 13.754 19.9898 14.5899 20.8854C14.7094 21.0306 14.8049 21.1274 14.8765 21.2Z" fill="#FBB646"/>
<path d="M17.4444 21.2C17.7036 20.8941 17.9628 20.5882 18.222 20.2587C19.1409 19.1528 19.73 17.8821 20.1777 16.5172C20.3897 15.8819 20.6489 15.2465 21.0024 14.6582C21.7799 13.3405 23.0052 12.5875 24.466 12.1874C25.3143 11.9521 26.1625 11.7403 26.8223 11.1285C27.1757 10.8226 27.482 10.4461 27.7883 10.1167C28.3774 12.4698 27.9768 15.2936 25.974 16.9879C25.1965 17.6467 24.2775 17.9997 23.3115 18.3056C20.4604 19.1292 19.8007 19.4822 17.4444 21.2Z" fill="#FBB646"/>
<path d="M3.02412 19.0381C3.89246 18.9182 4.76079 18.7743 5.62913 18.7024C8.01706 18.5105 10.2361 19.11 12.3829 20.0691C13.2512 20.4528 14.0954 20.9323 14.9637 21.364C15.1808 21.4838 15.3497 21.6277 15.5185 21.8195C15.3738 21.7716 15.205 21.7236 15.0602 21.6757C13.6371 21.1242 12.214 21.1242 10.7427 21.5318C10.0432 21.7236 9.3678 21.9394 8.66831 22.0593C7.31756 22.3231 6.08742 22.0114 5.05024 21.1242C4.32663 20.5247 3.67537 19.8293 3 19.1819C3 19.134 3.02412 19.086 3.02412 19.0381Z" fill="#FBB646"/>
<path d="M16.8025 21.7756C20.5127 19.36 24.4411 17.896 29 19.0916C28.9273 19.1892 28.8545 19.2624 28.7818 19.3356C28.2725 19.848 27.8118 20.4092 27.2783 20.8972C26.0901 22.044 24.6836 22.3856 23.1074 21.9952C22.3071 21.8 21.5069 21.556 20.6824 21.3608C19.6154 21.1168 18.5727 21.2144 17.53 21.5804C17.2875 21.678 17.0692 21.7512 16.8267 21.8244C16.8267 21.8488 16.8025 21.8 16.8025 21.7756Z" fill="#FBB646"/>
<path d="M16.3444 25C15.7124 25 15.1975 24.5201 15.1975 23.9031C15.1975 23.2861 15.7124 22.7833 16.321 22.7833C16.9061 22.7833 17.421 23.2861 17.4444 23.8802C17.4444 24.4973 16.9529 24.9771 16.3444 25Z" fill="#FBB646"/>
</svg>
