<svg width="88" height="65" viewBox="0 0 88 65" fill="none" xmlns="http://www.w3.org/2000/svg">
<path d="M44.3436 54.0851C44.0123 53.9219 43.681 53.7588 43.4325 53.5956C36.1442 46.5801 31.589 38.2593 31.5062 27.9807C31.5062 22.3519 33.4111 17.2942 36.3098 12.4812C38.8773 8.32078 41.4448 4.24197 44.0951 0C44.5092 0.815763 44.9233 1.54995 45.3374 2.28414C47.4908 5.95507 49.8098 9.626 51.8804 13.2969C55.0276 18.8441 56.8497 24.7992 56.4356 31.3253C55.8558 39.4829 52.4601 46.3353 46.8282 52.1273C46.0828 52.8614 45.1718 53.5141 44.3436 54.1667C50.1411 47.8037 53.8681 40.5434 54.9448 32.0595C53.0399 39.8908 48.8988 46.6616 44.5092 53.2693C46.1656 43.8065 44.4264 34.4252 44.0123 25.0439C43.7638 34.3436 41.8589 43.6433 43.8466 52.943C39.7055 46.3353 35.5644 39.7277 33.4939 32.1411C35.0675 40.4618 38.546 47.8037 44.3436 54.0851Z" fill="#FBB646"/>
<path d="M40.1975 52C37.3683 50.2611 34.62 48.3567 31.7099 46.6178C27.7491 44.2994 23.3032 43.1401 18.9381 41.8153C14.4922 40.4904 10.4505 38.4204 7.62133 34.5287C4.06462 29.6433 2.93294 24.0127 3.33711 18.051C3.41795 16.3949 3.74128 14.8217 3.98379 13C4.22629 13.3312 4.38796 13.414 4.46879 13.5796C6.57048 16.8917 9.48051 18.879 13.1181 20.0382C15.0581 20.6178 17.0789 21.1975 18.9381 21.9427C23.869 24.0127 27.3449 27.7389 29.2849 32.7898C30.3358 35.4395 31.2249 38.172 32.2758 40.7389C33.8925 44.6306 36.3983 47.8599 39.2275 50.9236C39.6317 51.4204 39.955 51.7516 40.1975 52Z" fill="#FBB646"/>
<path d="M48.8889 52C49.7661 50.9535 50.6434 49.9069 51.5206 48.7799C54.6309 44.9963 56.6246 40.6492 58.1398 35.98C58.8576 33.8064 59.7348 31.6329 60.9311 29.6203C63.5628 25.1122 67.7098 22.5361 72.6542 21.1676C75.5252 20.3625 78.3962 19.638 80.6292 17.5449C81.8254 16.4984 82.8622 15.2104 83.8989 14.0833C85.8927 22.1336 84.5369 31.7939 77.7582 37.5901C75.1265 39.8441 72.0163 41.0517 68.7465 42.0982C59.0968 44.9158 56.8638 46.1233 48.8889 52Z" fill="#FBB646"/>
<path d="M0.0816385 44.6039C3.02062 44.1937 5.95961 43.7015 8.89859 43.4554C16.9808 42.7992 24.4915 44.85 31.7574 48.1312C34.6964 49.4437 37.5537 51.0843 40.4927 52.5609C41.2274 52.9711 41.7989 53.4633 42.3704 54.1195C41.8805 53.9554 41.3091 53.7914 40.8192 53.6273C36.0026 51.7406 31.1859 51.7406 26.2059 53.1351C23.8384 53.7914 21.5526 54.5297 19.185 54.9398C14.6133 55.8422 10.4497 54.7758 6.93927 51.7406C4.49012 49.6898 2.28588 47.3109 0 45.0961C0 44.932 0.0816385 44.7679 0.0816385 44.6039Z" fill="#FBB646"/>
<path d="M46.716 53.9692C59.2736 45.7054 72.5698 40.697 88 44.7872C87.7538 45.121 87.5075 45.3715 87.2613 45.6219C85.5377 47.3748 83.9783 49.2947 82.1726 50.9641C78.1509 54.8874 73.3906 56.056 68.0557 54.7204C65.3472 54.0526 62.6387 53.2179 59.8481 52.5501C56.2368 51.7154 52.7076 52.0493 49.1783 53.3014C48.3576 53.6353 47.6189 53.8857 46.7981 54.1361C46.7981 54.2196 46.716 54.0526 46.716 53.9692Z" fill="#FBB646"/>
<path d="M45.1656 65C43.0267 65 41.2839 63.3582 41.2839 61.2474C41.2839 59.1366 43.0267 57.4167 45.0864 57.4167C47.0669 57.4167 48.8097 59.1366 48.8889 61.1692C48.8889 63.2801 47.2253 64.9218 45.1656 65Z" fill="#FBB646"/>
</svg>
