<svg width="226" height="36" viewBox="0 0 226 36" fill="none" xmlns="http://www.w3.org/2000/svg">
<path d="M9.78379 15.2543H0V14.9808C0.631212 14.7914 0.841616 14.3075 0.841616 12.5822V3.19814C0.841616 1.47283 0.631212 0.988899 0 0.799535V0.52601H3.40855V0.799535C2.75629 0.988899 2.56693 1.47283 2.56693 3.19814V13.9708C2.56693 14.581 2.90358 14.9177 3.51375 14.9177H6.01756C8.03744 14.9177 8.96321 14.4127 9.69963 12.8347L9.93107 12.8767L9.78379 15.2543Z" fill="#FBB646"/>
<path d="M21.7972 15.2543H11.4243V14.9808C12.0555 14.7914 12.2659 14.3075 12.2659 12.5822V3.19814C12.2659 1.47283 12.0555 0.988899 11.4243 0.799535V0.52601H21.2081L21.4395 3.26126L21.2081 3.32438C20.4717 1.47283 19.2303 0.841616 17.0842 0.841616H13.9912V7.21686H16.6844C19.083 7.21686 19.6932 6.73293 19.9457 5.78611H20.1981V8.96321H19.9457C19.6932 8.0164 19.083 7.53247 16.6844 7.53247H13.9912V13.9919C13.9912 14.602 14.3279 14.9387 14.938 14.9387H17.6733C19.6932 14.9387 20.9766 14.3706 21.7341 12.4138L21.9655 12.4559L21.7972 15.2543Z" fill="#FBB646"/>
<path d="M31.3459 15.2543V14.9808C31.9982 14.7914 32.1876 14.3075 32.1876 12.5822V0.862657H31.1566C29.2629 0.862657 28.4424 1.36763 27.727 2.88254L27.4955 2.84045L27.6218 0.52601H38.4576L38.5838 2.84045L38.3524 2.88254C37.637 1.36763 36.8164 0.862657 34.9228 0.862657H33.9339V12.5822C33.9339 14.3075 34.1233 14.7914 34.7755 14.9808V15.2543H31.3459Z" fill="#FBB646"/>
<path d="M50.3785 15.2543H40.0055V14.9808C40.6368 14.7914 40.8472 14.3075 40.8472 12.5822V3.19814C40.8472 1.47283 40.6368 0.988899 40.0055 0.799535V0.52601H49.7893L50.0208 3.26126L49.7893 3.32438C49.0529 1.47283 47.8115 0.841616 45.6654 0.841616H42.5725V7.21686H45.2656C47.6643 7.21686 48.2744 6.73293 48.5269 5.78611H48.7794V8.96321H48.5269C48.2744 8.0164 47.6643 7.53247 45.2656 7.53247H42.5725V13.9919C42.5725 14.602 42.9091 14.9387 43.5193 14.9387H46.2545C48.2744 14.9387 49.5579 14.3706 50.3153 12.4138L50.5468 12.4559L50.3785 15.2543Z" fill="#FBB646"/>
<path d="M52.3745 15.2543V14.9808C53.0268 14.7914 53.2161 14.3075 53.2161 12.5822V4.03976C53.2161 1.64115 52.7743 1.05202 51.9327 0.799535V0.52601H54.4785L59.9701 9.59443L65.3564 0.52601H67.734V0.799535C66.8924 1.05202 66.4505 1.64115 66.4505 4.03976V12.5822C66.4505 14.3075 66.6399 14.7914 67.2922 14.9808V15.2543H63.8836V14.9808C64.5148 14.7914 64.7252 14.3075 64.7252 12.5822V2.23028L59.381 11.2566H58.9812L53.5949 2.39861V11.7405C53.5949 14.1392 54.0998 14.7283 55.0256 14.9808V15.2543H52.3745Z" fill="#FBB646"/>
<path d="M69.8813 15.2543V14.9808C70.5125 14.7914 70.7229 14.3075 70.7229 12.5822V3.19814C70.7229 1.47283 70.5125 0.988899 69.8813 0.799535V0.52601H74.1525C78.5078 0.52601 79.8965 2.63005 79.8965 4.67097C79.8965 7.46935 77.8556 9.4261 73.9421 9.4261H72.4482V12.5822C72.4482 14.3075 72.6376 14.7914 73.2898 14.9808V15.2543H69.8813ZM73.9 9.1105C76.5932 9.1105 78.045 7.63767 78.045 5.1549C78.045 2.90358 76.7194 0.841616 73.3319 0.841616C73.0373 0.841616 72.7007 0.862657 72.4482 0.883697V9.1105H73.9Z" fill="#FBB646"/>
<path d="M86.4139 15.4647C84.2047 15.4647 82.3531 14.6862 81.3642 13.9708L81.259 11.0462L81.4905 11.0041C82.3111 13.2134 83.9101 15.086 86.8348 15.086C88.518 15.086 89.9698 13.9919 89.9698 12.2876C89.9698 10.1836 87.3818 9.2157 85.6144 8.50032C83.1316 7.51143 81.5536 6.62773 81.5536 4.39745C81.5536 1.93572 83.5945 0.378727 86.6875 0.378727C88.6021 0.378727 89.9698 0.904737 90.7904 1.34659L90.8745 3.78727L90.6641 3.85039C89.8856 2.01988 88.4128 0.715373 86.0142 0.715373C84.3099 0.715373 82.8581 1.70427 82.8581 3.49271C82.8581 5.47051 85.0253 6.27004 86.8137 7.00646C89.1492 7.93223 91.3374 8.85801 91.3374 11.2356C91.3374 13.8656 88.8967 15.4647 86.4139 15.4647Z" fill="#FBB646"/>
<path d="M103.009 15.2543H97.4968V14.9808C98.128 14.7914 98.3384 14.3075 98.3384 12.5822V3.19814C98.3384 1.47283 98.128 0.988899 97.4968 0.799535V0.52601H102.525C108.312 0.52601 110.584 4.20808 110.605 7.61663C110.626 12.0562 107.638 15.2543 103.009 15.2543ZM102.967 14.9387C106.649 14.9387 108.69 12.8557 108.69 8.45824C108.69 4.25016 106.187 0.841616 101.494 0.841616H100.064V13.4027C100.064 14.3916 100.274 14.9387 101.431 14.9387H102.967Z" fill="#FBB646"/>
<path d="M112.301 4.77617C113.395 4.22912 113.879 3.19814 113.942 2.12508C113.774 2.1882 113.627 2.23028 113.437 2.23028C112.869 2.23028 112.406 1.76739 112.406 1.1993C112.406 0.50497 112.869 0 113.542 0C114.363 0 114.889 0.589131 114.868 1.62011C114.868 3.15606 113.627 4.52369 112.385 4.96554L112.301 4.77617Z" fill="#FBB646"/>
<path d="M123.519 15.4647C120.51 15.4647 117.564 14.055 117.564 9.82587V3.19814C117.564 1.47283 117.375 0.988899 116.723 0.799535V0.52601H120.131V0.799535C119.5 0.988899 119.29 1.47283 119.29 3.19814V9.69963C119.29 13.6131 121.457 15.0229 124.192 15.0229C126.001 15.0229 128.421 13.8235 128.421 9.69963V4.03976C128.421 1.64115 127.916 1.05202 126.99 0.799535V0.52601H129.599V0.799535C128.968 0.988899 128.758 1.47283 128.758 3.19814V9.63651C128.758 13.8656 126.443 15.4647 123.519 15.4647Z" fill="#FBB646"/>
<path d="M142.386 15.4226L132.476 2.52485V11.7405C132.476 14.1392 132.981 14.7283 133.928 14.9808V15.2543H131.298V14.9808C131.929 14.7914 132.139 14.3075 132.139 12.5822V3.19814C132.139 1.47283 131.887 0.988899 131.045 0.799535V0.52601H133.107L142.302 12.4349V4.03976C142.302 1.64115 141.797 1.05202 140.85 0.799535V0.52601H143.501V0.799535C142.849 0.988899 142.659 1.47283 142.659 3.19814V15.4226H142.386Z" fill="#FBB646"/>
<path d="M152.945 15.2543V14.9808C153.597 14.7914 153.786 14.3075 153.786 12.5822V0.862657H152.755C150.862 0.862657 150.041 1.36763 149.326 2.88254L149.094 2.84045L149.221 0.52601H160.056L160.183 2.84045L159.951 2.88254C159.236 1.36763 158.415 0.862657 156.522 0.862657H155.533V12.5822C155.533 14.3075 155.722 14.7914 156.374 14.9808V15.2543H152.945Z" fill="#FBB646"/>
<path d="M158.776 15.2543V14.9808C159.365 14.7914 159.891 14.3706 160.544 12.7715L164.689 2.50381C164.836 2.12508 164.815 1.85156 164.647 1.51491L164.457 1.07306L166.035 0.357687L171.211 12.7926C171.863 14.3706 172.368 14.7914 172.81 14.9808V15.2543H169.549V14.9808C170.201 14.7914 170.033 14.3706 169.36 12.7926L168.076 9.69963H162.143L160.901 12.7715C160.354 14.1392 160.417 14.8335 161.154 14.9808V15.2543H158.776ZM162.269 9.38402H167.95L165.067 2.46173L162.269 9.38402Z" fill="#FBB646"/>
<path d="M184.795 15.4226L174.885 2.52485V11.7405C174.885 14.1392 175.39 14.7283 176.337 14.9808V15.2543H173.707V14.9808C174.338 14.7914 174.549 14.3075 174.549 12.5822V3.19814C174.549 1.47283 174.296 0.988899 173.455 0.799535V0.52601H175.517L184.711 12.4349V4.03976C184.711 1.64115 184.206 1.05202 183.259 0.799535V0.52601H185.911V0.799535C185.258 0.988899 185.069 1.47283 185.069 3.19814V15.4226H184.795Z" fill="#FBB646"/>
<path d="M190.937 15.2543V14.9808C191.589 14.7914 191.778 14.3075 191.778 12.5822V0.862657H190.747C188.854 0.862657 188.033 1.36763 187.318 2.88254L187.086 2.84045L187.212 0.52601H198.048L198.175 2.84045L197.943 2.88254C197.228 1.36763 196.407 0.862657 194.513 0.862657H193.525V12.5822C193.525 14.3075 193.714 14.7914 194.366 14.9808V15.2543H190.937Z" fill="#FBB646"/>
<path d="M210.306 15.4016C208.686 15.4016 208.349 14.2233 207.423 12.0351C206.203 9.13154 206.035 7.65871 203.51 7.65871H202.163V12.5822C202.163 14.3075 202.353 14.7914 203.005 14.9808V15.2543H199.596V14.9808C200.227 14.7914 200.438 14.3075 200.438 12.5822V3.19814C200.438 1.47283 200.227 0.988899 199.596 0.799535V0.52601H203.741C208.012 0.52601 209.275 1.93572 209.275 3.80831C209.275 5.78611 207.844 7.27998 205.109 7.59559C207.697 7.93223 208.097 9.2157 209.106 11.8037C210.116 14.3285 210.537 15.0229 211.253 15.0229C211.379 15.0229 211.484 15.0229 211.589 15.0018V15.2543C211.274 15.3595 210.727 15.4016 210.306 15.4016ZM203.931 7.3431C206.35 7.3431 207.486 6.08068 207.486 4.29224C207.486 2.41965 206.266 0.841616 203.152 0.841616L202.163 0.883697V7.3431H203.931Z" fill="#FBB646"/>
<path d="M211.049 15.2543V14.9808C211.638 14.7914 212.164 14.3706 212.816 12.7715L216.961 2.50381C217.108 2.12508 217.087 1.85156 216.919 1.51491L216.73 1.07306L218.308 0.357687L223.484 12.7926C224.136 14.3706 224.641 14.7914 225.083 14.9808V15.2543H221.821V14.9808C222.474 14.7914 222.305 14.3706 221.632 12.7926L220.348 9.69963H214.415L213.174 12.7715C212.627 14.1392 212.69 14.8335 213.426 14.9808V15.2543H211.049ZM214.541 9.38402H220.222L217.34 2.46173L214.541 9.38402Z" fill="#FBB646"/>
<path d="M58.1089 32.4822C58.0269 32.053 57.6986 31.4091 56.7581 31.4091C55.6851 31.4091 55.2369 32.337 55.2369 33.2459C55.2369 34.1612 55.6851 35.0891 56.7581 35.0891C57.705 35.0891 58.0711 34.4452 58.1089 33.8772H58.677C58.576 34.8745 57.8691 35.5941 56.7581 35.5941C55.521 35.5941 54.6688 34.6094 54.6688 33.2459C54.6688 31.8888 55.521 30.9041 56.7581 30.9041C57.8628 30.9041 58.5697 31.6237 58.677 32.4822H58.1089Z" fill="#FBB646"/>
<path d="M60.4506 32.9177H62.7672V33.4227H60.4506V35.0007H63.1459V35.5057H59.8825V30.9925H63.0702V31.4975H60.4506V32.9177Z" fill="#FBB646"/>
<path d="M64.3772 35.5057V30.9925H65.0715L67.325 34.7104H67.3376V30.9925H67.9057V35.5057H67.2114L64.9579 31.8005H64.9453V35.5057H64.3772Z" fill="#FBB646"/>
<path d="M70.3798 35.5057V31.4975H68.8776V30.9925H72.4502V31.4975H70.9479V35.5057H70.3798Z" fill="#FBB646"/>
<path d="M73.5823 35.5057V30.9925H75.4128C76.3028 30.9925 76.9025 31.4722 76.9025 32.2739C76.9025 32.924 76.5932 33.2838 76.0945 33.4101V33.4227C77.0982 33.6184 76.7321 35.3921 76.9656 35.4678V35.5057H76.3533C76.1577 35.3163 76.5869 33.6815 75.4444 33.6815H74.1504V35.5057H73.5823ZM74.1504 31.4975V33.1765H75.2803C75.7474 33.1765 76.3344 33.1197 76.3344 32.337C76.3344 31.5543 75.7474 31.4975 75.2803 31.4975H74.1504Z" fill="#FBB646"/>
<path d="M78.7129 32.9177H81.0294V33.4227H78.7129V35.0007H81.4082V35.5057H78.1448V30.9925H81.3324V31.4975H78.7129V32.9177Z" fill="#FBB646"/>
<path d="M84.4712 35.5057V30.9925H86.1061C87.3495 30.9925 88.1133 31.8005 88.1133 33.2523C88.1133 34.704 87.3495 35.5057 86.1061 35.5057H84.4712ZM85.0393 31.4975V35.0007H86.1061C87.2549 35.0007 87.5452 34.136 87.5452 33.2523C87.5452 32.3686 87.2549 31.4975 86.1061 31.4975H85.0393Z" fill="#FBB646"/>
<path d="M89.9223 32.9177H92.2389V33.4227H89.9223V35.0007H92.6176V35.5057H89.3542V30.9925H92.5419V31.4975H89.9223V32.9177Z" fill="#FBB646"/>
<path d="M95.6807 35.5057V30.9925H96.4571L97.871 34.7419H97.8836L99.2975 30.9925H100.074V35.5057H99.5058V31.7942H99.4932L98.1298 35.5057H97.6248L96.2614 31.7942H96.2488V35.5057H95.6807Z" fill="#FBB646"/>
<path d="M104.102 34.3758H102.113L101.716 35.5057H101.129L102.795 30.9925H103.426L105.086 35.5057H104.499L104.102 34.3758ZM102.303 33.8708H103.918L103.117 31.5164H103.104L102.303 33.8708Z" fill="#FBB646"/>
<path d="M107.704 32.8735C108.72 33.126 109.383 33.2964 109.383 34.3253C109.383 34.9818 108.897 35.5941 107.754 35.5941C106.688 35.5941 105.861 35.026 105.798 33.9908H106.366C106.429 34.6094 106.807 35.0891 107.754 35.0891C108.537 35.0891 108.815 34.7293 108.815 34.3253C108.815 33.7067 108.48 33.5931 107.47 33.3596C106.795 33.2018 105.987 32.9682 105.987 32.0908C105.987 31.3776 106.536 30.9041 107.533 30.9041C108.493 30.9041 109.162 31.3965 109.238 32.3307H108.67C108.588 31.7247 108.247 31.4091 107.533 31.4091C106.896 31.4091 106.555 31.6553 106.555 32.0277C106.555 32.6274 107.041 32.7094 107.704 32.8735Z" fill="#FBB646"/>
<path d="M112.223 32.8735C113.239 33.126 113.902 33.2964 113.902 34.3253C113.902 34.9818 113.416 35.5941 112.274 35.5941C111.207 35.5941 110.38 35.026 110.317 33.9908H110.885C110.948 34.6094 111.327 35.0891 112.274 35.0891C113.056 35.0891 113.334 34.7293 113.334 34.3253C113.334 33.7067 113 33.5931 111.99 33.3596C111.314 33.2018 110.506 32.9682 110.506 32.0908C110.506 31.3776 111.055 30.9041 112.053 30.9041C113.012 30.9041 113.681 31.3965 113.757 32.3307H113.189C113.107 31.7247 112.766 31.4091 112.053 31.4091C111.415 31.4091 111.074 31.6553 111.074 32.0277C111.074 32.6274 111.56 32.7094 112.223 32.8735Z" fill="#FBB646"/>
<path d="M117.703 34.3758H115.714L115.317 35.5057H114.73L116.396 30.9925H117.027L118.687 35.5057H118.1L117.703 34.3758ZM115.904 33.8708H117.52L116.718 31.5164H116.705L115.904 33.8708Z" fill="#FBB646"/>
<path d="M122.78 32.3559C122.647 31.7121 122.129 31.4091 121.448 31.4091C120.375 31.4091 119.92 32.4001 119.92 33.2459C119.92 34.0981 120.248 35.0891 121.385 35.0891C122.193 35.0891 122.855 34.5084 122.855 33.6625H121.385V33.1576H123.423V35.5057H123.045L122.855 34.8682H122.843C122.502 35.3416 122.079 35.5941 121.385 35.5941C120.072 35.5941 119.352 34.6094 119.352 33.2459C119.352 31.8888 120.198 30.9041 121.448 30.9041C122.59 30.9041 123.19 31.4975 123.348 32.3559H122.78Z" fill="#FBB646"/>
<path d="M125.343 32.9177H127.66V33.4227H125.343V35.0007H128.039V35.5057H124.775V30.9925H127.963V31.4975H125.343V32.9177Z" fill="#FBB646"/>
<path d="M132.32 35.5057V31.4975H130.818V30.9925H134.39V31.4975H132.888V35.5057H132.32Z" fill="#FBB646"/>
<path d="M137.569 34.3758H135.58L135.183 35.5057H134.596L136.262 30.9925H136.893L138.553 35.5057H137.966L137.569 34.3758ZM135.77 33.8708H137.386L136.584 31.5164H136.571L135.77 33.8708Z" fill="#FBB646"/>
<path d="M139.61 35.5057V30.9925H140.305L142.558 34.7104H142.571V30.9925H143.139V35.5057H142.444L140.191 31.8005H140.178V35.5057H139.61Z" fill="#FBB646"/>
<path d="M145.613 35.5057V31.4975H144.111V30.9925H147.683V31.4975H146.181V35.5057H145.613Z" fill="#FBB646"/>
<path d="M148.815 35.5057V30.9925H150.646C151.536 30.9925 152.136 31.4722 152.136 32.2739C152.136 32.924 151.826 33.2838 151.328 33.4101V33.4227C152.331 33.6184 151.965 35.3921 152.199 35.4678V35.5057H151.586C151.391 35.3163 151.82 33.6815 150.677 33.6815H149.384V35.5057H148.815ZM149.384 31.4975V33.1765H150.513C150.98 33.1765 151.568 33.1197 151.568 32.337C151.568 31.5543 150.98 31.4975 150.513 31.4975H149.384Z" fill="#FBB646"/>
<path d="M153.391 30.9925H153.959V35.5057H153.391V30.9925Z" fill="#FBB646"/>
<path d="M159.661 33.2459C159.661 33.8835 159.465 34.4326 159.125 34.8429L159.655 35.3731L159.295 35.7329L158.758 35.1964C158.405 35.4489 157.957 35.5941 157.452 35.5941C156.126 35.5941 155.243 34.603 155.243 33.2459C155.243 31.8888 156.126 30.9041 157.452 30.9041C158.777 30.9041 159.661 31.8888 159.661 33.2459ZM157.452 35.0891C157.831 35.0891 158.14 34.9881 158.386 34.824L157.761 34.1991L158.121 33.8393L158.746 34.4642C158.979 34.136 159.093 33.7004 159.093 33.2459C159.093 32.2739 158.588 31.4091 157.452 31.4091C156.316 31.4091 155.811 32.2739 155.811 33.2459C155.811 34.218 156.316 35.0891 157.452 35.0891Z" fill="#FBB646"/>
<path d="M164.29 34.0034C164.29 34.925 163.766 35.5941 162.56 35.5941C161.354 35.5941 160.831 34.925 160.831 34.0034V30.9925H161.399V34.0034C161.399 34.7356 161.777 35.0891 162.56 35.0891C163.343 35.0891 163.722 34.7356 163.722 34.0034V30.9925H164.29V34.0034Z" fill="#FBB646"/>
<path d="M166.197 32.9177H168.514V33.4227H166.197V35.0007H168.892V35.5057H165.629V30.9925H168.817V31.4975H166.197V32.9177Z" fill="#FBB646"/>
<path d="M106.12 23.9335H20.6433V24.4595H106.12V23.9335Z" fill="url(#paint0_linear_49_7)"/>
<path d="M111.806 24.3486C111.776 24.333 111.745 24.3175 111.722 24.302C111.047 23.634 110.625 22.8419 110.617 21.8633C110.617 21.3274 110.794 20.8459 111.062 20.3876C111.3 19.9916 111.538 19.6032 111.783 19.1994C111.822 19.277 111.86 19.3469 111.898 19.4168C112.098 19.7663 112.313 20.1158 112.505 20.4653C112.796 20.9934 112.965 21.5604 112.927 22.1817C112.873 22.9584 112.558 23.6107 112.037 24.1622C111.968 24.2321 111.883 24.2942 111.806 24.3563C112.344 23.7505 112.689 23.0593 112.789 22.2516C112.612 22.9972 112.228 23.6418 111.822 24.2709C111.975 23.37 111.814 22.4768 111.776 21.5837C111.753 22.4691 111.576 23.3545 111.76 24.2398C111.377 23.6107 110.993 22.9817 110.801 22.2594C110.947 23.0516 111.269 23.7505 111.806 24.3486Z" fill="#FBB646"/>
<path d="M111.422 24.1501C111.16 23.9845 110.906 23.8032 110.636 23.6376C110.269 23.4169 109.857 23.3065 109.453 23.1804C109.041 23.0543 108.666 22.8572 108.404 22.4867C108.075 22.0216 107.97 21.4855 108.007 20.9179C108.015 20.7603 108.045 20.6105 108.067 20.437C108.09 20.4686 108.105 20.4765 108.112 20.4922C108.307 20.8076 108.576 20.9968 108.913 21.1071C109.093 21.1623 109.28 21.2175 109.453 21.2884C109.909 21.4855 110.231 21.8403 110.411 22.3211C110.509 22.5734 110.591 22.8336 110.688 23.0779C110.838 23.4484 111.07 23.7559 111.332 24.0476C111.37 24.0949 111.4 24.1264 111.422 24.1501Z" fill="#FBB646"/>
<path d="M112.228 24.1501C112.309 24.0504 112.39 23.9508 112.471 23.8435C112.76 23.4833 112.944 23.0694 113.085 22.6249C113.151 22.4179 113.232 22.211 113.343 22.0194C113.587 21.5902 113.971 21.3449 114.429 21.2146C114.695 21.138 114.961 21.069 115.168 20.8697C115.279 20.7701 115.375 20.6475 115.471 20.5402C115.656 21.3066 115.53 22.2263 114.902 22.7781C114.658 22.9927 114.37 23.1077 114.067 23.2073C113.173 23.4756 112.966 23.5906 112.228 24.1501Z" fill="#FBB646"/>
<path d="M107.706 23.4459C107.978 23.4069 108.25 23.36 108.522 23.3366C109.271 23.2741 109.967 23.4693 110.64 23.7817C110.913 23.9067 111.177 24.0629 111.45 24.2035C111.518 24.2425 111.571 24.2894 111.624 24.3518C111.578 24.3362 111.525 24.3206 111.48 24.305C111.034 24.1254 110.587 24.1254 110.126 24.2581C109.907 24.3206 109.695 24.3909 109.475 24.4299C109.052 24.5158 108.666 24.4143 108.341 24.1254C108.114 23.9301 107.91 23.7036 107.698 23.4928C107.698 23.4771 107.706 23.4615 107.706 23.4459Z" fill="#FBB646"/>
<path d="M112.026 24.3375C113.19 23.5508 114.422 23.0739 115.851 23.4634C115.828 23.4951 115.806 23.519 115.783 23.5428C115.623 23.7097 115.479 23.8925 115.311 24.0514C114.939 24.4249 114.498 24.5362 114.003 24.4091C113.752 24.3455 113.501 24.266 113.243 24.2024C112.908 24.123 112.581 24.1547 112.254 24.274C112.178 24.3057 112.11 24.3296 112.034 24.3534C112.034 24.3614 112.026 24.3455 112.026 24.3375Z" fill="#FBB646"/>
<path d="M117.429 23.9335H202.906V24.4595H117.429V23.9335Z" fill="url(#paint1_linear_49_7)"/>
<defs>
<linearGradient id="paint0_linear_49_7" x1="106.12" y1="24.1965" x2="20.6433" y2="24.1965" gradientUnits="userSpaceOnUse">
<stop stop-color="#FBB646"/>
<stop offset="1" stop-color="#D9D9D9" stop-opacity="0"/>
</linearGradient>
<linearGradient id="paint1_linear_49_7" x1="117.429" y1="24.1965" x2="202.906" y2="24.1965" gradientUnits="userSpaceOnUse">
<stop stop-color="#FBB646"/>
<stop offset="1" stop-color="#D9D9D9" stop-opacity="0"/>
</linearGradient>
</defs>
</svg>
