<svg width="226" height="36" viewBox="0 0 226 36" fill="none" xmlns="http://www.w3.org/2000/svg">
<path d="M9.78368 15.2541H0V14.9806C0.631205 14.7912 0.841607 14.3073 0.841607 12.582V3.19811C0.841607 1.47281 0.631205 0.988888 0 0.799526V0.526004H3.40851V0.799526C2.75626 0.988888 2.5669 1.47281 2.5669 3.19811V13.9707C2.5669 14.5808 2.90354 14.9175 3.51371 14.9175H6.01749C8.03735 14.9175 8.96311 14.4125 9.69952 12.8345L9.93096 12.8766L9.78368 15.2541Z" fill="white"/>
<path d="M21.797 15.2541H11.4242V14.9806C12.0554 14.7912 12.2658 14.3073 12.2658 12.582V3.19811C12.2658 1.47281 12.0554 0.988888 11.4242 0.799526V0.526004H21.2078L21.4393 3.26123L21.2078 3.32435C20.4714 1.47281 19.2301 0.841606 17.084 0.841606H13.9911V7.21678H16.6842C19.0828 7.21678 19.6929 6.73285 19.9454 5.78605H20.1979V8.96311H19.9454C19.6929 8.01631 19.0828 7.53238 16.6842 7.53238H13.9911V13.9917C13.9911 14.6019 14.3277 14.9385 14.9379 14.9385H17.6731C19.6929 14.9385 20.9764 14.3704 21.7338 12.4137L21.9653 12.4558L21.797 15.2541Z" fill="white"/>
<path d="M31.3456 15.2541V14.9806C31.9978 14.7912 32.1872 14.3073 32.1872 12.582V0.862647H31.1562C29.2626 0.862647 28.442 1.36761 27.7267 2.8825L27.4952 2.84042L27.6215 0.526004H38.4572L38.5834 2.84042L38.352 2.8825C37.6366 1.36761 36.816 0.862647 34.9224 0.862647H33.9335V12.582C33.9335 14.3073 34.1229 14.7912 34.7751 14.9806V15.2541H31.3456Z" fill="white"/>
<path d="M50.3779 15.2541H40.0051V14.9806C40.6363 14.7912 40.8467 14.3073 40.8467 12.582V3.19811C40.8467 1.47281 40.6363 0.988888 40.0051 0.799526V0.526004H49.7888L50.0202 3.26123L49.7888 3.32435C49.0524 1.47281 47.811 0.841606 45.6649 0.841606H42.572V7.21678H45.2651C47.6637 7.21678 48.2739 6.73285 48.5264 5.78605H48.7788V8.96311H48.5264C48.2739 8.01631 47.6637 7.53238 45.2651 7.53238H42.572V13.9917C42.572 14.6019 42.9086 14.9385 43.5188 14.9385H46.254C48.2739 14.9385 49.5573 14.3704 50.3148 12.4137L50.5462 12.4558L50.3779 15.2541Z" fill="white"/>
<path d="M52.3739 15.2541V14.9806C53.0262 14.7912 53.2155 14.3073 53.2155 12.582V4.03971C53.2155 1.64113 52.7737 1.05201 51.9321 0.799526V0.526004H54.4779L59.9694 9.59432L65.3557 0.526004H67.7332V0.799526C66.8916 1.05201 66.4498 1.64113 66.4498 4.03971V12.582C66.4498 14.3073 66.6391 14.7912 67.2914 14.9806V15.2541H63.8829V14.9806C64.5141 14.7912 64.7245 14.3073 64.7245 12.582V2.23026L59.3803 11.2565H58.9805L53.5942 2.39858V11.7404C53.5942 14.139 54.0992 14.7281 55.025 14.9806V15.2541H52.3739Z" fill="white"/>
<path d="M69.8805 15.2541V14.9806C70.5117 14.7912 70.7221 14.3073 70.7221 12.582V3.19811C70.7221 1.47281 70.5117 0.988888 69.8805 0.799526V0.526004H74.1516C78.507 0.526004 79.8956 2.63002 79.8956 4.67092C79.8956 7.46926 77.8547 9.426 73.9412 9.426H72.4474V12.582C72.4474 14.3073 72.6367 14.7912 73.289 14.9806V15.2541H69.8805ZM73.8992 9.11039C76.5923 9.11039 78.0441 7.63758 78.0441 5.15484C78.0441 2.90354 76.7185 0.841606 73.3311 0.841606C73.0365 0.841606 72.6999 0.862647 72.4474 0.883687V9.11039H73.8992Z" fill="white"/>
<path d="M86.413 15.4645C84.2037 15.4645 82.3522 14.686 81.3633 13.9707L81.2581 11.0461L81.4896 11.004C82.3101 13.2132 83.9092 15.0858 86.8338 15.0858C88.517 15.0858 89.9688 13.9917 89.9688 12.2875C89.9688 10.1834 87.3808 9.21559 85.6134 8.50023C83.1307 7.51134 81.5527 6.62765 81.5527 4.3974C81.5527 1.9357 83.5936 0.378723 86.6865 0.378723C88.6011 0.378723 89.9688 0.904727 90.7893 1.34657L90.8735 3.78723L90.6631 3.85035C89.8846 2.01986 88.4118 0.715365 86.0132 0.715365C84.309 0.715365 82.8572 1.70425 82.8572 3.49267C82.8572 5.47044 85.0243 6.26997 86.8127 7.00638C89.1482 7.93214 91.3364 8.85791 91.3364 11.2355C91.3364 13.8655 88.8957 15.4645 86.413 15.4645Z" fill="white"/>
<path d="M103.008 15.2541H97.4957V14.9806C98.1269 14.7912 98.3373 14.3073 98.3373 12.582V3.19811C98.3373 1.47281 98.1269 0.988888 97.4957 0.799526V0.526004H102.524C108.31 0.526004 110.583 4.20803 110.604 7.61654C110.625 12.056 107.637 15.2541 103.008 15.2541ZM102.966 14.9385C106.648 14.9385 108.689 12.8555 108.689 8.45815C108.689 4.25011 106.185 0.841606 101.493 0.841606H100.063V13.4026C100.063 14.3915 100.273 14.9385 101.43 14.9385H102.966Z" fill="white"/>
<path d="M112.3 4.77612C113.394 4.22907 113.878 3.19811 113.941 2.12506C113.773 2.18818 113.625 2.23026 113.436 2.23026C112.868 2.23026 112.405 1.76737 112.405 1.19929C112.405 0.504964 112.868 0 113.541 0C114.362 0 114.888 0.589125 114.867 1.62009C114.867 3.15603 113.625 4.52364 112.384 4.96548L112.3 4.77612Z" fill="white"/>
<path d="M123.517 15.4645C120.509 15.4645 117.563 14.0548 117.563 9.82576V3.19811C117.563 1.47281 117.374 0.988888 116.721 0.799526V0.526004H120.13V0.799526C119.499 0.988888 119.288 1.47281 119.288 3.19811V9.69952C119.288 13.613 121.455 15.0227 124.191 15.0227C126 15.0227 128.42 13.8234 128.42 9.69952V4.03971C128.42 1.64113 127.915 1.05201 126.989 0.799526V0.526004H129.598V0.799526C128.967 0.988888 128.756 1.47281 128.756 3.19811V9.6364C128.756 13.8655 126.442 15.4645 123.517 15.4645Z" fill="white"/>
<path d="M142.384 15.4224L132.474 2.52482V11.7404C132.474 14.139 132.979 14.7281 133.926 14.9806V15.2541H131.296V14.9806C131.927 14.7912 132.138 14.3073 132.138 12.582V3.19811C132.138 1.47281 131.885 0.988888 131.044 0.799526V0.526004H133.106L142.3 12.4347V4.03971C142.3 1.64113 141.795 1.05201 140.848 0.799526V0.526004H143.499V0.799526C142.847 0.988888 142.658 1.47281 142.658 3.19811V15.4224H142.384Z" fill="white"/>
<path d="M152.943 15.2541V14.9806C153.595 14.7912 153.785 14.3073 153.785 12.582V0.862647H152.754C150.86 0.862647 150.039 1.36761 149.324 2.8825L149.093 2.84042L149.219 0.526004H160.055L160.181 2.84042L159.949 2.8825C159.234 1.36761 158.413 0.862647 156.52 0.862647H155.531V12.582C155.531 14.3073 155.72 14.7912 156.373 14.9806V15.2541H152.943Z" fill="white"/>
<path d="M158.775 15.2541V14.9806C159.364 14.7912 159.89 14.3704 160.542 12.7714L164.687 2.50378C164.834 2.12506 164.813 1.85153 164.645 1.51489L164.455 1.07305L166.033 0.357683L171.209 12.7924C171.862 14.3704 172.366 14.7912 172.808 14.9806V15.2541H169.547V14.9806C170.199 14.7912 170.031 14.3704 169.358 12.7924L168.074 9.69952H162.141L160.9 12.7714C160.353 14.139 160.416 14.8333 161.152 14.9806V15.2541H158.775ZM162.267 9.38392H167.948L165.066 2.4617L162.267 9.38392Z" fill="white"/>
<path d="M184.793 15.4224L174.883 2.52482V11.7404C174.883 14.139 175.388 14.7281 176.335 14.9806V15.2541H173.705V14.9806C174.336 14.7912 174.547 14.3073 174.547 12.582V3.19811C174.547 1.47281 174.294 0.988888 173.453 0.799526V0.526004H175.515L184.709 12.4347V4.03971C184.709 1.64113 184.204 1.05201 183.257 0.799526V0.526004H185.908V0.799526C185.256 0.988888 185.067 1.47281 185.067 3.19811V15.4224H184.793Z" fill="white"/>
<path d="M190.934 15.2541V14.9806C191.587 14.7912 191.776 14.3073 191.776 12.582V0.862647H190.745C188.851 0.862647 188.031 1.36761 187.316 2.8825L187.084 2.84042L187.21 0.526004H198.046L198.172 2.84042L197.941 2.8825C197.225 1.36761 196.405 0.862647 194.511 0.862647H193.522V12.582C193.522 14.3073 193.712 14.7912 194.364 14.9806V15.2541H190.934Z" fill="white"/>
<path d="M210.303 15.4014C208.683 15.4014 208.347 14.2232 207.421 12.035C206.201 9.13143 206.032 7.65862 203.507 7.65862H202.161V12.582C202.161 14.3073 202.35 14.7912 203.002 14.9806V15.2541H199.594V14.9806C200.225 14.7912 200.436 14.3073 200.436 12.582V3.19811C200.436 1.47281 200.225 0.988888 199.594 0.799526V0.526004H203.739C208.01 0.526004 209.272 1.9357 209.272 3.80827C209.272 5.78605 207.842 7.2799 205.106 7.5955C207.694 7.93214 208.094 9.21559 209.104 11.8035C210.114 14.3284 210.535 15.0227 211.25 15.0227C211.376 15.0227 211.482 15.0227 211.587 15.0016V15.2541C211.271 15.3593 210.724 15.4014 210.303 15.4014ZM203.928 7.34302C206.348 7.34302 207.484 6.08061 207.484 4.29219C207.484 2.41962 206.264 0.841606 203.15 0.841606L202.161 0.883687V7.34302H203.928Z" fill="white"/>
<path d="M211.046 15.2541V14.9806C211.635 14.7912 212.161 14.3704 212.814 12.7714L216.959 2.50378C217.106 2.12506 217.085 1.85153 216.916 1.51489L216.727 1.07305L218.305 0.357683L223.481 12.7924C224.133 14.3704 224.638 14.7912 225.08 14.9806V15.2541H221.819V14.9806C222.471 14.7912 222.303 14.3704 221.629 12.7924L220.346 9.69952H214.413L213.171 12.7714C212.624 14.139 212.687 14.8333 213.424 14.9806V15.2541H211.046ZM214.539 9.38392H220.22L217.337 2.4617L214.539 9.38392Z" fill="white"/>
<path d="M58.1083 32.4819C58.0262 32.0527 57.698 31.4088 56.7575 31.4088C55.6845 31.4088 55.2363 32.3367 55.2363 33.2456C55.2363 34.1609 55.6845 35.0888 56.7575 35.0888C57.7043 35.0888 58.0704 34.4449 58.1083 33.8768H58.6764C58.5754 34.8742 57.8684 35.5937 56.7575 35.5937C55.5203 35.5937 54.6682 34.609 54.6682 33.2456C54.6682 31.8885 55.5203 30.9039 56.7575 30.9039C57.8621 30.9039 58.5691 31.6234 58.6764 32.4819H58.1083Z" fill="white"/>
<path d="M60.45 32.9174H62.7665V33.4224H60.45V35.0004H63.1452V35.5054H59.8819V30.9922H63.0695V31.4972H60.45V32.9174Z" fill="white"/>
<path d="M64.3765 35.5054V30.9922H65.0708L67.3242 34.71H67.3368V30.9922H67.9049V35.5054H67.2106L64.9572 31.8002H64.9446V35.5054H64.3765Z" fill="white"/>
<path d="M70.3791 35.5054V31.4972H68.8768V30.9922H72.4494V31.4972H70.9471V35.5054H70.3791Z" fill="white"/>
<path d="M73.5815 35.5054V30.9922H75.412C76.302 30.9922 76.9016 31.472 76.9016 32.2736C76.9016 32.9237 76.5923 33.2835 76.0937 33.4098V33.4224C77.0973 33.6181 76.7312 35.3917 76.9647 35.4675V35.5054H76.3525C76.1568 35.316 76.586 33.6812 75.4435 33.6812H74.1496V35.5054H73.5815ZM74.1496 31.4972V33.1762H75.2794C75.7465 33.1762 76.3335 33.1194 76.3335 32.3367C76.3335 31.554 75.7465 31.4972 75.2794 31.4972H74.1496Z" fill="white"/>
<path d="M78.712 32.9174H81.0285V33.4224H78.712V35.0004H81.4072V35.5054H78.1439V30.9922H81.3315V31.4972H78.712V32.9174Z" fill="white"/>
<path d="M84.4703 35.5054V30.9922H86.1051C87.3486 30.9922 88.1123 31.8002 88.1123 33.252C88.1123 34.7037 87.3486 35.5054 86.1051 35.5054H84.4703ZM85.0383 31.4972V35.0004H86.1051C87.2539 35.0004 87.5442 34.1356 87.5442 33.252C87.5442 32.3683 87.2539 31.4972 86.1051 31.4972H85.0383Z" fill="white"/>
<path d="M89.9213 32.9174H92.2378V33.4224H89.9213V35.0004H92.6166V35.5054H89.3532V30.9922H92.5408V31.4972H89.9213V32.9174Z" fill="white"/>
<path d="M95.6796 35.5054V30.9922H96.456L97.8699 34.7416H97.8825L99.2964 30.9922H100.073V35.5054H99.5047V31.7939H99.4921L98.1287 35.5054H97.6237L96.2603 31.7939H96.2477V35.5054H95.6796Z" fill="white"/>
<path d="M104.1 34.3755H102.112L101.714 35.5054H101.127L102.794 30.9922H103.425L105.085 35.5054H104.498L104.1 34.3755ZM102.301 33.8705H103.917L103.116 31.5161H103.103L102.301 33.8705Z" fill="white"/>
<path d="M107.703 32.8732C108.719 33.1257 109.382 33.2961 109.382 34.325C109.382 34.9815 108.896 35.5937 107.753 35.5937C106.686 35.5937 105.859 35.0256 105.796 33.9905H106.364C106.428 34.609 106.806 35.0888 107.753 35.0888C108.536 35.0888 108.814 34.729 108.814 34.325C108.814 33.7064 108.479 33.5928 107.469 33.3593C106.794 33.2015 105.986 32.9679 105.986 32.0905C105.986 31.3773 106.535 30.9039 107.532 30.9039C108.492 30.9039 109.161 31.3962 109.236 32.3304H108.668C108.586 31.7244 108.245 31.4088 107.532 31.4088C106.895 31.4088 106.554 31.655 106.554 32.0274C106.554 32.6271 107.04 32.7091 107.703 32.8732Z" fill="white"/>
<path d="M112.222 32.8732C113.238 33.1257 113.901 33.2961 113.901 34.325C113.901 34.9815 113.415 35.5937 112.272 35.5937C111.206 35.5937 110.379 35.0256 110.316 33.9905H110.884C110.947 34.609 111.326 35.0888 112.272 35.0888C113.055 35.0888 113.333 34.729 113.333 34.325C113.333 33.7064 112.998 33.5928 111.988 33.3593C111.313 33.2015 110.505 32.9679 110.505 32.0905C110.505 31.3773 111.054 30.9039 112.051 30.9039C113.011 30.9039 113.68 31.3962 113.756 32.3304H113.188C113.106 31.7244 112.765 31.4088 112.051 31.4088C111.414 31.4088 111.073 31.655 111.073 32.0274C111.073 32.6271 111.559 32.7091 112.222 32.8732Z" fill="white"/>
<path d="M117.701 34.3755H115.713L115.315 35.5054H114.728L116.395 30.9922H117.026L118.686 35.5054H118.099L117.701 34.3755ZM115.902 33.8705H117.518L116.717 31.5161H116.704L115.902 33.8705Z" fill="white"/>
<path d="M122.778 32.3556C122.646 31.7118 122.128 31.4088 121.446 31.4088C120.373 31.4088 119.919 32.3998 119.919 33.2456C119.919 34.0978 120.247 35.0888 121.383 35.0888C122.191 35.0888 122.854 34.5081 122.854 33.6622H121.383V33.1573H123.422V35.5054H123.043L122.854 34.8678H122.841C122.5 35.3412 122.078 35.5937 121.383 35.5937C120.07 35.5937 119.351 34.609 119.351 33.2456C119.351 31.8885 120.197 30.9039 121.446 30.9039C122.589 30.9039 123.188 31.4972 123.346 32.3556H122.778Z" fill="white"/>
<path d="M125.342 32.9174H127.659V33.4224H125.342V35.0004H128.037V35.5054H124.774V30.9922H127.962V31.4972H125.342V32.9174Z" fill="white"/>
<path d="M132.319 35.5054V31.4972H130.816V30.9922H134.389V31.4972H132.887V35.5054H132.319Z" fill="white"/>
<path d="M137.567 34.3755H135.579L135.181 35.5054H134.594L136.26 30.9922H136.892L138.552 35.5054H137.965L137.567 34.3755ZM135.768 33.8705H137.384L136.582 31.5161H136.57L135.768 33.8705Z" fill="white"/>
<path d="M139.609 35.5054V30.9922H140.303L142.556 34.71H142.569V30.9922H143.137V35.5054H142.443L140.189 31.8002H140.177V35.5054H139.609Z" fill="white"/>
<path d="M145.611 35.5054V31.4972H144.109V30.9922H147.682V31.4972H146.179V35.5054H145.611Z" fill="white"/>
<path d="M148.814 35.5054V30.9922H150.644C151.534 30.9922 152.134 31.472 152.134 32.2736C152.134 32.9237 151.825 33.2835 151.326 33.4098V33.4224C152.33 33.6181 151.963 35.3917 152.197 35.4675V35.5054H151.585C151.389 35.316 151.818 33.6812 150.676 33.6812H149.382V35.5054H148.814ZM149.382 31.4972V33.1762H150.512C150.979 33.1762 151.566 33.1194 151.566 32.3367C151.566 31.554 150.979 31.4972 150.512 31.4972H149.382Z" fill="white"/>
<path d="M153.389 30.9922H153.957V35.5054H153.389V30.9922Z" fill="white"/>
<path d="M159.659 33.2456C159.659 33.8832 159.464 34.4323 159.123 34.8426L159.653 35.3728L159.293 35.7326L158.757 35.1961C158.403 35.4485 157.955 35.5937 157.45 35.5937C156.125 35.5937 155.241 34.6027 155.241 33.2456C155.241 31.8885 156.125 30.9039 157.45 30.9039C158.776 30.9039 159.659 31.8885 159.659 33.2456ZM157.45 35.0888C157.829 35.0888 158.138 34.9878 158.384 34.8237L157.759 34.1988L158.119 33.839L158.744 34.4639C158.978 34.1356 159.091 33.7001 159.091 33.2456C159.091 32.2736 158.586 31.4088 157.45 31.4088C156.314 31.4088 155.809 32.2736 155.809 33.2456C155.809 34.2177 156.314 35.0888 157.45 35.0888Z" fill="white"/>
<path d="M164.288 34.0031C164.288 34.9246 163.764 35.5937 162.558 35.5937C161.353 35.5937 160.829 34.9246 160.829 34.0031V30.9922H161.397V34.0031C161.397 34.7353 161.776 35.0888 162.558 35.0888C163.341 35.0888 163.72 34.7353 163.72 34.0031V30.9922H164.288V34.0031Z" fill="white"/>
<path d="M166.195 32.9174H168.512V33.4224H166.195V35.0004H168.891V35.5054H165.627V30.9922H168.815V31.4972H166.195V32.9174Z" fill="white"/>
<path d="M106.119 23.933H20.6431V24.459H106.119V23.933Z" fill="url(#paint0_linear_49_14)"/>
<path d="M111.805 24.3481C111.774 24.3326 111.744 24.3171 111.721 24.3015C111.045 23.6336 110.623 22.8415 110.616 21.8629C110.616 21.327 110.792 20.8455 111.061 20.3873C111.299 19.9912 111.537 19.6029 111.782 19.199C111.82 19.2767 111.859 19.3466 111.897 19.4165C112.097 19.766 112.312 20.1154 112.503 20.4649C112.795 20.993 112.964 21.56 112.925 22.1813C112.872 22.958 112.557 23.6103 112.035 24.1617C111.966 24.2316 111.882 24.2938 111.805 24.3559C112.342 23.7501 112.688 23.0589 112.787 22.2512C112.611 22.9968 112.227 23.6414 111.82 24.2705C111.974 23.3696 111.813 22.4764 111.774 21.5833C111.751 22.4687 111.575 23.354 111.759 24.2394C111.375 23.6103 110.992 22.9813 110.8 22.259C110.946 23.0512 111.268 23.7501 111.805 24.3481Z" fill="white"/>
<path d="M111.421 24.1496C111.159 23.9841 110.904 23.8028 110.635 23.6372C110.268 23.4165 109.856 23.3061 109.451 23.18C109.039 23.0539 108.665 22.8568 108.403 22.4863C108.073 22.0212 107.968 21.4851 108.006 20.9175C108.013 20.7599 108.043 20.6101 108.066 20.4367C108.088 20.4682 108.103 20.4761 108.111 20.4918C108.306 20.8072 108.575 20.9964 108.912 21.1067C109.092 21.1619 109.279 21.2171 109.451 21.288C109.908 21.4851 110.23 21.8399 110.41 22.3207C110.507 22.573 110.59 22.8331 110.687 23.0775C110.837 23.448 111.069 23.7555 111.331 24.0472C111.369 24.0945 111.399 24.126 111.421 24.1496Z" fill="white"/>
<path d="M112.226 24.1496C112.308 24.05 112.389 23.9504 112.47 23.8431C112.758 23.4828 112.943 23.069 113.083 22.6245C113.15 22.4175 113.231 22.2106 113.342 22.019C113.586 21.5898 113.97 21.3445 114.428 21.2142C114.694 21.1376 114.96 21.0686 115.167 20.8694C115.278 20.7697 115.374 20.6471 115.47 20.5398C115.655 21.3062 115.529 22.2259 114.901 22.7777C114.657 22.9923 114.369 23.1073 114.066 23.2069C113.172 23.4752 112.965 23.5901 112.226 24.1496Z" fill="white"/>
<path d="M107.704 23.4455C107.977 23.4064 108.249 23.3596 108.521 23.3362C109.27 23.2737 109.966 23.4689 110.639 23.7813C110.911 23.9063 111.176 24.0625 111.448 24.203C111.516 24.2421 111.569 24.2889 111.622 24.3514C111.577 24.3358 111.524 24.3202 111.479 24.3046C111.032 24.1249 110.586 24.1249 110.125 24.2577C109.905 24.3202 109.694 24.3905 109.474 24.4295C109.051 24.5154 108.665 24.4139 108.34 24.1249C108.113 23.9297 107.909 23.7032 107.697 23.4923C107.697 23.4767 107.704 23.4611 107.704 23.4455Z" fill="white"/>
<path d="M112.025 24.3371C113.188 23.5504 114.42 23.0735 115.85 23.4629C115.827 23.4947 115.804 23.5186 115.781 23.5424C115.622 23.7093 115.477 23.8921 115.31 24.051C114.937 24.4245 114.496 24.5358 114.002 24.4086C113.751 24.3451 113.5 24.2656 113.242 24.202C112.907 24.1225 112.58 24.1543 112.253 24.2735C112.177 24.3053 112.109 24.3292 112.033 24.353C112.033 24.3609 112.025 24.3451 112.025 24.3371Z" fill="white"/>
<path d="M117.428 23.933H202.904V24.459H117.428V23.933Z" fill="url(#paint1_linear_49_14)"/>
<defs>
<linearGradient id="paint0_linear_49_14" x1="106.119" y1="24.196" x2="20.6431" y2="24.196" gradientUnits="userSpaceOnUse">
<stop stop-color="white"/>
<stop offset="1" stop-color="#D9D9D9" stop-opacity="0"/>
</linearGradient>
<linearGradient id="paint1_linear_49_14" x1="117.428" y1="24.196" x2="202.904" y2="24.196" gradientUnits="userSpaceOnUse">
<stop stop-color="white"/>
<stop offset="1" stop-color="#D9D9D9" stop-opacity="0"/>
</linearGradient>
</defs>
</svg>
